<svg xmlns="http://www.w3.org/2000/svg" xmlns:xlink="http://www.w3.org/1999/xlink" viewBox="0 0 102 26" fill="#fff" fill-rule="evenodd" stroke="#000" stroke-linecap="round" stroke-linejoin="round"><use xlink:href="#H" x=".5" y=".5"/><defs><linearGradient id="A" x1="20.08%" x2="145.35%" y1="85.01%" y2="-18.62%"><stop stop-color="#282662" offset="0%"/><stop stop-color="#68308f" offset="9.5%"/><stop stop-color="#a22367" offset="78.8%"/><stop stop-color="#cd2032" offset="94.9%"/></linearGradient><linearGradient id="B" x1="31.47%" x2="105.84%" y1="83.07%" y2="-43.28%"><stop stop-color="#f69923" offset="0%"/><stop stop-color="#f79a23" offset="31.2%"/><stop stop-color="#e97826" offset="83.8%"/></linearGradient><linearGradient id="C" x1="-306.15%" x2="86.50%" y1="202.95%" y2="35.86%"><stop stop-color="#9e2064" offset="32.3%"/><stop stop-color="#c92037" offset="63%"/><stop stop-color="#d12c3e" offset="75.1%"/><stop stop-color="#e97826" offset="100%"/></linearGradient><linearGradient id="D" x1="-76.46%" x2="148.46%" y1="146.87%" y2="-17.69%"><stop stop-color="#9e2064" offset="32.3%"/><stop stop-color="#c92037" offset="63%"/><stop stop-color="#d12339" offset="75.1%"/><stop stop-color="#e97826" offset="100%"/></linearGradient><linearGradient id="E" x1="-79.19%" x2="144.61%" y1="108.85%" y2="9.28%"><stop stop-color="#9e2064" offset="32.3%"/><stop stop-color="#cb2239" offset="63%"/><stop stop-color="#ce2436" offset="75.1%"/><stop stop-color="#e97826" offset="100%"/></linearGradient><linearGradient id="F" x1="-315.73%" x2="79.36%" y1="156.73%" y2="38.87%"><stop stop-color="#9e2064" offset="32.3%"/><stop stop-color="#c92037" offset="63%"/><stop stop-color="#cf2739" offset="75.1%"/><stop stop-color="#e97826" offset="100%"/></linearGradient><linearGradient id="G" x1="-83.66%" x2="217.13%" y1="92.24%" y2="9.18%"><stop stop-color="#282662" offset="0%"/><stop stop-color="#662e8d" offset="9.5%"/><stop stop-color="#a22367" offset="78.8%"/><stop stop-color="#cd2032" offset="94.9%"/></linearGradient></defs><symbol id="H" overflow="visible"><g stroke="none"><g fill-rule="nonzero"><path d="M51.021 21.523a42.05 42.05 0 0 1-5.182-.571l-.178-.031c1.119 1.163 1.857 3.708 1.846 3.7-1.903-2.168-3.886-3.948-6.084-4.693-.389.806-.43 2.035-.273 3.506-.936-1.728-1.027-2.872-1.02-3.306-.405 1.269-1.629 2.389-2.989 3.485 1.305-1.775 2.026-3.293 2.055-4.503-5.597.522-11.728.914-18.211 1.219.305-.517.764-.755 1.318-.814 1.172-.05 8.871-.402 19.127-1.408l.88-.088.246-.026 3.299-.348.769-.085 4.774 3.982-.378-.02z" fill="url(#A)"/><path d="M99.295 7.885c-1.171 1.095-2.607 1.849-4.004 2.612l-2.551 1.265-3.32-2.997c2.315-.883 4.626-1.892 6.79-3.101-2.157 1.154-4.501 2.011-6.804 2.819.792-2.553 1.816-5.161 2.952-7.668 2.065.155 4.264.675 5.879 2.042.894.868 1.67 1.994 1.76 3.271.037.657-.234 1.301-.701 1.759z" fill="url(#B)"/><path d="M78.047 12.246l3.85-1.024 4.032-1.227 3.527-1.245 3.321 2.995-.686.319-2.804 1.227-3.534 1.407-3.557 1.287-3.328 1.1c-1.633-1.212-3.036-2.637-4.554-3.955l3.733-.884z" fill="url(#C)"/><path d="M50.649 17.089l3.977-.515 3.882-.553 3.924-.614 4.002-.689 3.935-.751 1.407-.287 2.409-.52.129-.03 4.554 3.956-.244.076-3.545 1.054-3.687.974-3.161.736-.64.136-3.825.703-3.924.514-2.336.2-1.898.084c-1.483.047-2.948.039-4.393-.028l-4.578-3.976 3.126-.363.885-.108z" fill="url(#D)"/><path d="M73.976 12.608l-.526.111-1.621.332-1.829.357-.949.179-2.965.532-3.895.641-3.974.592-4.011.542-3.778.461-4.225.463.771-2.078-.01.134c.961-2.475 3.724-5.39 6.633-6.992 1.34-.739 2.852-1.334 4.565-1.806 1.275-.351 2.662-.633 4.173-.853l4.256-.444c-.457.509-.853 1.124-1.198 1.826l-.177.377-.167.392c1.518-2.156 3.666-3.213 6.108-3.76a8.75 8.75 0 0 0-1.977 2.55l-.218.485-.051.123c.559-.744 1.121-1.344 1.73-1.834l.399-.3.637-.401.428-.225c.342-.166.702-.311 1.086-.436l.357-.11.508-.115 1.994-.36.799-.094.283-.025.724-.038.737.019c-.084.065-.171.141-.26.229-.611.611-1.314 1.76-1.748 2.709l-.126.328-2.275 6.482c-.027.006-.182 0-.211.007z" fill="url(#E)"/><path d="M89.445 8.468L85.82 9.629l-.215.064-3.851 1.077-3.876.965-3.82.855 2.387-6.479c1.391-1.729 2.464-2.446 3.854-2.999l1.186-.422 3.935-1.105L89.077.92l1.925-.145 1.403.042-2.962 7.651z" fill="url(#F)"/><path d="M45.614 16.881l-3.252.318-.461.043-2.891.247c-.159-.867-.936-1.728-1.848-2.586a4.39 4.39 0 0 1 2.581 2.117c.792-3.881 2.594-6.943 5.83-7.946.295-.092.595-.165.899-.219-1.18.529-1.841 1.386-2.195 3.226 1.867-2.368 3.35-3.419 5.549-4.124l1.699-.457c-2.984 1.731-4.348 4.265-4.547 7.244l-.011.132-.759 1.946-.591.062z" fill="url(#G)"/><path d="M42.529.489c.663-.466 1.532-.597 2.313-.402.662.16 1.244.623 1.535 1.24l-.479.29a1.84 1.84 0 0 0-.639-.746c-.375-.251-.836-.352-1.283-.329-.461.02-.915.196-1.262.5-.514.445-.801 1.112-.858 1.782-.067.757.191 1.541.711 2.096.251.268.565.481.914.596a2.14 2.14 0 0 0 2.19-.548A1.96 1.96 0 0 0 46 4.491l.497.257c-.151.343-.403.636-.706.856-.709.514-1.668.705-2.506.426-.62-.206-1.143-.652-1.495-1.197-.44-.678-.638-1.518-.502-2.319S41.857.953 42.527.486zM31.696 6.111V.035h2.535c.344.002.684.118.962.319a2.01 2.01 0 0 1 .816 1.47 2.09 2.09 0 0 1-.306 1.219 1.74 1.74 0 0 1-.827.71 1.67 1.67 0 0 1-.644.116 3150.9 3150.9 0 0 0-1.945 0v2.242h-.591m.59-5.546v2.773h1.943a1.07 1.07 0 0 0 .673-.233 1.39 1.39 0 0 0 .467-.778c.087-.374.045-.783-.149-1.117-.206-.369-.602-.643-1.032-.644h-1.902zm5.938-.53h.488l2.544 6.076h-.642l-.788-1.899h-2.733l-.778 1.899h-.634L38.224.035m-1.001 3.707h2.466L38.473.737l-1.25 3.005zM47.333.034h.591v2.704h3.605V.034h.6v6.077h-.6l.001-2.841h-3.605l-.001 2.842c-.197-.001-.394 0-.59-.001V.034zm6.172 0h4.008v.531h-3.417v2.191h2.981v.504h-2.981v2.32h3.495v.53h-4.086V.035z" fill="#d32128"/><path d="M28.006.035h.488l2.544 6.076h-.642l-.788-1.899c-.911 0-1.822 0-2.733 0l-.778 1.899h-.634L28.006.035m-1.001 3.707h2.466L28.255.737l-1.25 3.005z" fill="#000"/><path d="M86.338 20.772h.572v.122c-.071 0-.142 0-.213 0v.598h-.146v-.598c-.071 0-.142 0-.213 0v-.122zm.664.721v-.721h.218l.131.491.129-.492h.218v.72c-.045 0-.09 0-.135 0v-.567l-.143.567c-.046 0-.093 0-.14 0l-.142-.566v.566h-.136z" fill="#66c2e3"/></g><path d="M73.54 23.233h5.175l.641-2.916 4.479.009a3.38 3.38 0 0 0 1.927-.607c.685-.463 1.196-1.172 1.388-2.046l.978-4.437c.186-.844.428-1.798-.177-2.56-.556-.702-1.296-.756-2.107-.756-5.843.006-11.686 0-17.529 0-.59 0-1.084.191-1.599.457-.484-.342-.92-.457-1.513-.457h-8.02l.657-2.956h-5.183l-.641 2.884h-4.558c-.63 0-1.234.198-1.762.537-.512-.318-.907-.457-1.513-.457H29.134l.689-2.996-5.175-.008-2.983 13.345 5.17.001 1.555-6.829h1.749c.208 0 .167.119.132.275l-1.471 6.554h34.276c.582 0 1.037-.12 1.56-.387.516.345.972.459 1.602.454l7.939-.067-.638 2.965zm-22.387-9.785h-1.526c-.268 0-.34.122-.392.362l-.573 2.57c-.054.246.07.287.286.287h1.485l.721-3.219zm8.752.062h1.63c.314 0 .297.165.24.418l-.56 2.518c-.065.293-.248.288-.499.288h-1.658c-.244 0-.246-.144-.202-.341l.558-2.517c.069-.311.191-.366.493-.366zm10.728 0h1.63c.314 0 .297.165.24.418l-.56 2.518c-.065.293-.248.288-.5.288h-1.658c-.244 0-.246-.144-.203-.341l.558-2.517c.069-.311.191-.366.493-.366zm9.567 3.248h1.526c.268 0 .34-.122.393-.362l.573-2.57c.054-.246-.07-.287-.286-.287H80.92l-.721 3.219" fill="#000"/><g fill="#66c2e3"><path d="M58.712 10.669h6.5c1.014 0 1.66.83 1.436 1.844l-1.158 5.228c-.224 1.014-1.239 1.844-2.253 1.844h-6.5c-1.014 0-1.661-.83-1.436-1.844l1.158-5.228c.224-1.014 1.238-1.844 2.253-1.844zm1.178 2.099h3.214c.537 0 .879.439.76.976l-.612 2.767c-.119.537-.655.976-1.192.976h-3.214c-.537 0-.879-.439-.76-.976l.612-2.767c.119-.537.656-.976 1.192-.976m-5.396-5.154l-.665 2.988-5.299-.004c-1.014-.001-2.026.829-2.251 1.844l-1.162 5.23c-.224 1.014.422 1.844 1.436 1.844h7.803l2.637-11.901h-2.499zm-4.785 5.084h3.657l-1.05 4.716h-3.653c-.537 0-.878-.437-.759-.973l.613-2.77c.119-.536.656-.973 1.192-.973z"/><path d="M26.474 7.614l-1.012 4.562h.013l-.043.18-.043.159-.84 3.786h.009l-.716 3.215h2.499l.716-3.215h.004l.566-2.555.219-.977h3.648c.537 0 .882.441.764.977l-1.278 5.771h2.504l.707-3.181h.004l.845-3.82c.225-1.014-.422-1.848-1.436-1.848H28.3l.677-3.052h-2.504zm17.706 11.9h-8.338c-1.014 0-1.66-.83-1.436-1.844l.336-1.517h.002l.065-.292c.224-1.014 1.239-1.845 2.253-1.844l5.835.003.086-.387c.092-.506-.227-.915-.728-.936H35.5l.465-2.098 8.382.002c.993.02 1.622.841 1.4 1.844l-.158.712h.001l-.192.864h.002l-1.219 5.493zm-6.482-2.099h4.442l.289-1.299h-4.366a.62.62 0 0 0-.065-.003.86.86 0 0 0-.794.65c-.078.354.144.643.494.65m31.728-6.744h6.5c1.014 0 1.66.83 1.436 1.844l-1.158 5.228c-.224 1.014-1.239 1.844-2.253 1.844h-6.5c-1.014 0-1.66-.83-1.436-1.844l1.158-5.228c.224-1.014 1.238-1.844 2.253-1.844zm1.178 2.099h3.214c.537 0 .879.439.76.976l-.612 2.767c-.119.537-.655.976-1.192.976H69.56c-.537 0-.879-.439-.76-.976l.612-2.767c.119-.537.656-.976 1.192-.976m7.56 9.799l.664-2.988 5.299.004c1.014.001 2.026-.829 2.251-1.844l1.162-5.23c.224-1.014-.422-1.844-1.436-1.844h-7.803l-2.636 11.901h2.499zm4.784-5.084h-3.657l1.05-4.716h3.653c.537 0 .878.437.759.973l-.613 2.77c-.119.536-.656.973-1.192.973z"/></g><path d="M2.895 14.085l-.124.337-.237-.087.124-.337zm-.124.337l-.184.501-.237-.087.184-.501zm-.184.501l-.03.046-.089-.089zm-.03.046l-.404.4-.178-.179.404-.4zm-.404.4l-.358.355-.178-.179.358-.355zm-.358.355l-.09.088-.175-.183.087-.084zm-.09.088c-.162.156-.194.187-.147.465l-.249.041c-.069-.41-.021-.456.221-.689zm-.147.465c.038.224.112.452.229.675l-.224.118c-.129-.246-.211-.5-.253-.751zm.229.675c.108.207.253.407.437.591l-.179.178c-.204-.205-.364-.425-.483-.652zm.437.591c.236.236.621.529 1.022.682l-.089.236c-.438-.166-.856-.484-1.111-.74zm1.022.682c.279.106.563.142.8.037l.102.231c-.306.136-.655.095-.991-.032zm.8.037l.244-.108-.071.257-.122-.034zm.173.149l-.111.35-.238-.086.105-.331zm-.111.35l-.136.333-.23-.105.128-.314zm-.136.332c-.213.468.01.715.357.873l-.105.23c-.475-.216-.78-.556-.482-1.208zm.357.873c.222.101.49.171.739.236l-.063.244c-.262-.068-.544-.142-.781-.25zm.739.236l.176.046-.064.244-.174-.046zm.176.046c.301.081.82.23 1.287.26l-.016.253c-.49-.031-1.025-.185-1.336-.269zm1.287.26c.422.027.799-.044.886-.368l.244.064c-.129.48-.611.59-1.145.556zm.886-.368a2.43 2.43 0 0 0 .084-.435l.253.021a2.69 2.69 0 0 1-.093.478zm.084-.435c.011-.132.007-.26-.01-.422l.251-.024a2.48 2.48 0 0 1 .012.466zm-.01-.422l.01-.063.116.052zm.01-.063c.17-.38.24-.482.364-.663l.208.142c-.114.168-.179.262-.341.624zm.364-.663l.055-.082.209.141-.056.083zm.055-.082c.096-.143.141-.239.155-.338l.25.035c-.02.142-.076.267-.196.444zm.155-.338c.015-.104 0-.228-.023-.417l.251-.029c.025.208.041.344.022.481zm-.023-.417l-.015-.119.25-.032.016.122zm-.015-.119l-.018-.125.25-.037.018.13zm-.018-.125l-.025-.169.168.025-.019.125zm.144-.143c.35.053.703.08 1.057.083l-.001.253a7.65 7.65 0 0 1-1.094-.086zm1.057.083c.35.002.698-.02 1.05-.063l.03.251a8.32 8.32 0 0 1-1.08.065zm1.05-.063l.078.235-.063-.11zm.078.235l-.667.357-.116-.225.657-.351zm-.667.357l-.058.03-.116-.225.058-.03zm-.058.03c-.268.137-.27.425-.175.727l-.241.075c-.129-.414-.112-.815.3-1.027zm-.175.727c.107.343.334.703.477.923l-.211.137c-.15-.232-.39-.612-.506-.985zm.477.923c.298.46.58.847.903 1.046l-.131.216c-.365-.224-.667-.636-.983-1.124zm.903 1.046c.305.187.663.205 1.136-.052l.12.223c-.565.306-1.003.279-1.387.043zm1.136-.052c.224-.121.299-.252.4-.429l.22.124c-.122.214-.213.373-.5.528zm.4-.429l.149-.244.209.14-.138.228zm.149-.244l.044-.041.061.111zm.044-.041c.073-.041.389-.301.696-.554l.161.194-.735.582zm.696-.554l.394-.324.159.197-.392.321zm.394-.324l.097-.078.08.096-.097.081zm.177.017c.05.06.13.098.238.124l-.058.246c-.162-.039-.286-.101-.375-.208zm.238.124a3.2 3.2 0 0 0 .486.059l-.018.253a3.36 3.36 0 0 1-.526-.066zm.486.059c.155.011.651.011.971.011v.253c-.327 0-.834.001-.989-.011zm.971.011h.236l-.001.253h-.236v-.253zm.236 0c.299.002.535-.011.691-.1l.125.22c-.206.117-.479.135-.817.133l.001-.253zm.691-.1c.142-.081.229-.24.25-.538l.253.018c-.028.395-.159.616-.378.741zm.25-.538c.011-.153.014-.244-.004-.323l.247-.054c.024.111.022.219.01.395zm-.004-.323c-.017-.078-.058-.16-.133-.293l.221-.123c.087.154.134.252.159.362zm-.133-.293l-.016-.059.126-.003zm-.016-.059l-.015-.543.253-.006.015.544zm-.015-.543l-.015-.544.253-.006.014.544zm-.015-.544c-.005-.195-.026-.351-.065-.503l.245-.061c.043.171.067.344.073.558zm-.065-.503c-.039-.153-.097-.306-.175-.492l.233-.098c.082.196.144.359.187.529zm-.175-.492l-.149-.385.237-.087.145.374zm.088-.472l-.119.043zm-.237.088l-.245-.587.226-.114c.108.213.181.41.256.613zm-.245-.587l-.011-.079.125.022zm-.011-.079l.031-.195.25.032-.032.207zm.031-.195l.022-.203.253.021-.025.214zm.022-.203l.024-.264.19.183-.087.091zm.214-.081l.371.358-.175.183-.371-.358zm.371.358l.278.268-.175.183-.278-.268zm.278.268c.2.193.384.369.587.488l-.128.218c-.227-.134-.421-.32-.633-.524zm.587.488c.195.115.416.182.702.168l.012.253c-.343.016-.607-.064-.842-.203zm.702.168c.309-.014.643-.147.92-.352l.15.203c-.316.233-.7.384-1.058.401zm.92-.352c.265-.195.476-.454.562-.736l.242.073c-.102.337-.348.641-.653.867zm.562-.736l.089-.292.242.073-.089.292zm.089-.292l.103-.34.241.073-.103.34zm.103-.34l.033-.108.111.021-.023.124zm.144-.087a5.62 5.62 0 0 0 1.605.074l.025.251c-.56.059-1.142.023-1.676-.077zm1.605.074c.47-.049.924-.169 1.315-.377l.119.223c-.419.224-.905.352-1.408.405zm1.315-.377a3.3 3.3 0 0 0 1.31-1.291l.219.125c-.332.575-.794 1.06-1.41 1.389zm1.31-1.291h0l.11.063-.11-.063zm0-.001c.353-.612.551-1.333.626-2.077l.251.024c-.079.779-.287 1.537-.658 2.179zm.626-2.077c.061-.606.027-1.432-.099-2.231l.249-.04c.13.82.165 1.669.101 2.295zm-.099-2.231c-.112-.705-.296-1.387-.55-1.872l.225-.116c.266.51.459 1.219.574 1.95zm-.55-1.872c-.02-.038-.053-.08-.095-.122l.177-.181c.061.06.11.123.142.186zm-.095-.122a1.21 1.21 0 0 0-.436-.266l.082-.239a1.47 1.47 0 0 1 .531.324zm-.436-.266c-.155-.053-.311-.068-.422-.01l-.117-.224c.18-.094.405-.079.62-.005zm-.422-.01c-.024.012-.046.028-.064.048l-.181-.177c.039-.039.082-.071.129-.095zm-.064.048c-.103.105-.194.237-.285.37l-.208-.142c.098-.143.196-.287.313-.405zm-.285.37c-.12.175-.24.35-.395.483l-.164-.193c.131-.112.241-.273.351-.433zm-.395.483c-.19.163-.411.251-.616.333l-.094-.235c.186-.075.387-.155.546-.291zm-.616.333l-.093.038-.096-.234.095-.038zm-.093.038l-.121.05-.046-.123.119-.043zm-.166-.074c-.082-.221-.182-.418-.298-.603l.214-.134c.124.198.232.411.321.651zm-.298-.603c-.117-.187-.25-.362-.396-.536l.194-.162c.154.184.294.367.417.564zm-.396-.536a2.07 2.07 0 0 0-.341-.325l.153-.2a2.31 2.31 0 0 1 .381.364zm-.341-.325c-.118-.09-.252-.174-.409-.272l.134-.214.427.286zm-.409-.272c-.441-.276-.81-.6-1.187-.931l.166-.191c.369.324.731.641 1.155.907zm-1.187-.931l-.498-.427.161-.195.503.432zm-.498-.427c-.835-.688-1.608-1.022-2.429-1.073l.016-.253c.876.055 1.696.407 2.574 1.131zm-2.429-1.073c-.827-.052-1.711.18-2.761.621l-.098-.233c1.085-.457 2.004-.696 2.874-.641zm-2.761.621c-.495.208-.861.453-1.178.747l-.171-.186c.339-.313.728-.574 1.251-.794zm-1.178.747c-.32.296-.595.646-.904 1.058l-.203-.151c.316-.423.599-.782.935-1.093zm-.904 1.059l-.036.048-.059.003-.006-.126zm-.095.051c-.176.009-.323.03-.469.089l-.094-.235c.177-.071.348-.096.55-.107zm-.469.089c-.149.059-.302.159-.489.324l-.167-.19c.211-.186.388-.3.563-.37zm-.489.324l-.424.392-.176-.182.432-.4zm-.424.392h-.001l-.087-.091.088.091zm-.001 0l-.402.405-.183-.175.41-.412zm-.402.405l-.072.037-.02-.124zm-.072.037c-.988.157-1.789.33-2.504.607l-.091-.236c.731-.283 1.548-.46 2.555-.62zm-2.504.607a6.35 6.35 0 0 0-1.978 1.224l-.167-.19c.667-.592 1.317-.985 2.054-1.27zM4.693 8.201c-.261.231-.486.474-.682.731l-.2-.153c.207-.271.442-.526.715-.768zm-.682.731a5.45 5.45 0 0 0-.513.817l-.225-.114c.154-.301.331-.585.538-.856zm-.513.817l-.019.027-.094-.085zm-.019.027l-.441.458-.169-.189c.149-.134.285-.287.423-.439zm-.441.458a1.75 1.75 0 0 1-.538.347l-.091-.236c.168-.065.319-.172.46-.299zm-.538.347h0l-.045-.118zm0 0c-.162.062-.241.094-.331.055l.098-.233c.004.002.045-.021.144-.059zm-.331.055h-.001l.049-.117-.049.117zm-.001 0c-.095-.04-.121-.118-.18-.274l.237-.088c.033.089.033.127.042.13zm-.18-.274l-.033-.088.076-.057.075.101zm.043-.145c.232-.175.254-.522.275-.857l.253.016c-.025.391-.05.798-.377 1.043zm.275-.857l.008-.121.253.018-.008.119zm.008-.121l.009-.123.123.006-.006.126zm.132-.118c.208.01.303.157.405.316l-.212.136c-.066-.101-.126-.195-.205-.199zm.405.316l.089.129-.197.157a1.98 1.98 0 0 1-.104-.15zm.114.235l-.058.259-.164-.207.099-.078zm-.247-.054c.043-.191.075-.441.029-.646l.246-.055c.056.25.02.539-.028.756zm.029-.646c-.029-.13-.092-.242-.209-.303l.115-.225c.193.1.295.274.34.473zm-.209-.303l-.1-.052.039-.105.119.044zm-.06-.156l.073-.191.235.092-.072.187zm.073-.191l.116-.307.239.083-.12.316zm.214-.39l.212-.037-.071.203-.119-.041zm.042.249c-.245.043-.784.345-1.175.751l-.183-.175c.427-.443 1.033-.776 1.316-.825zm-1.175.751a1.8 1.8 0 0 0-.338.468l-.229-.106a2.05 2.05 0 0 1 .384-.537zm-.338.468c-.073.155-.106.313-.079.466l-.249.043c-.036-.208.006-.416.099-.614zm-.079.466a.76.76 0 0 0 .24.416l-.175.183c-.183-.176-.281-.364-.314-.556zm.24.416l.035.061-.123.03zm.035.061l.092.341-.241.075-.096-.355zm.092.341c.03.095.063.181.104.267l-.228.108a2.29 2.29 0 0 1-.117-.3zm.104.267c.091.189.235.304.401.357l-.077.241a.91.91 0 0 1-.552-.49zm.401.357c.193.062.418.043.629-.039l.092.235c-.263.102-.548.125-.797.045zm.629-.039l.22-.086-.05.23-.123-.027zm.169.144c-.06.273-.095.559-.108.883l-.253-.009a5.2 5.2 0 0 1 .113-.927zm-.108.883c-.012.323 0 .686.037 1.113l-.253.021c-.037-.432-.049-.805-.037-1.142zm.037 1.113l.033.3-.25.034-.036-.313zm.033.3l.052.309-.248.047-.054-.322zm.052.309l-.005.067-.119-.043" fill="#000" fill-rule="nonzero"/></g><path d="M9.224 6.447l-1.664.27-1.519.666-1.29.811-1.227 1.498-.693.734-.67.247-.177-.433.31-.447.07-.631.208.008.227.207-.061-.643-.252-.169.008-.245-.596.337-.54.636-.113.569.231.456.216.774.438.207.46-.023.437-.254-.291 1.477.291 1.643-.32.759-1.05 1.131.187.676.497.783.938.66.497.068.553.019-.345 1.416 1.269.52 1.581.208.541-.354.042-.957.603-.998.042-.79 1.456.104 1.352-.125-1.352.811.228.976.853 1.331.833.354.666-.271.27-.541 1.393-1.061.27.229 2.184.083.437-.354.042-.624-.146-.27-.104-1.685-.728-1.456.125-.645.437.229 1.227 1.144.603.042.666-.27.666-.499.333-1.082 1.955.125 1.186-.457.957-.894.686-1.29.166-1.518-.146-1.768-.374-1.581-.374-.499-.52-.167-.915.998-.833.291-.728-1.207-.728-.666-.395-.25-1.581-1.31-1.269-.686-1.269-.104-1.477.25-1.29.479-.895.728-.707.854-.728.208z" stroke="#1f1917" fill="#feeb50" stroke-width=".037"/><g stroke="none"><g fill="#fdf7ba"><path d="M4.397 10.203c-1.425 1.662-1.109 3.679-.714 5.654l-.633-1.598-.233-1.465.067-1.498.6-1.431.899-1.332 1.398-1.165 1.531-.632 1.798-.233L7.446 8.4c-1.337.434-2.125.725-3.048 1.803"/><path d="M11.108 5.137c-.991.967-1.532 1.696-2.163 2.828l-1.431 2.388c-.24.404-.263.743-.334 1.209l-.699-.832.333-.999 1.132-2.031 2.397-2.364.766-.2m4.894-2.397c-.794.298-2.112.396-2.203 1.307-.065.647.049.972.439 1.656-.963-.997-1.201-.843-3.063-.533l.799-1.132 1.398-.866 1.798-.4.832-.033"/></g><g fill="#edd749"><path d="M18.191 15.062c.264.163.259.281.214.393l.625-.25.405-.543.301-.775-.384-.289-1.679.214-.125.339.036.482.161.286.25.125.197.018m-.156-2.872c-.842.243-.835.31-1.084 1.145.328-.526.571-.792 1.084-1.145m5.597-6.249c-.15.069-.295.102-.389.239-.201.295-.374.543-.707.749-.168.104-.341.172-.519.227-.148.046-.236.005-.362.095l.223.039h.493l.607-.375.357-.375.296-.6M10.224 7.809c-.331.906-.62 1.683-1.122 2.503.643-.693 1.032-1.281 1.401-2.064.143-.304.17-.661.568-.528.018.304.082.607.1.911.216-1.543.822-2.188 2.233-2.787l-1.197.143-1.126.25-.554.804-.304.768m2.734-.037l.933 4.261c.124.945.137 1.399-.339 2.215-.52-.034-.843.025-1.345.19-2.002.656-3.149 1.621-4.498-.323L9 14.724l.921-.181 1.626-.947 1.268-.25.411-1.715-.304-2.269-.036-1.072.071-.518m3.447 8.861c-.168 1.163.387 1.789.157 2.11-.065.09-.153.25-.252.293-.352.155-.836-.029-.87.062h-1.161l-.465-.196.715-.84.697-1.518.447-1.536h.232l.5 1.626"/><path d="M14.453 13.252c.094.528.258.654.507 1.165-.165.834-.431 1.826-.751 2.563-.135.31-.244.482-.481.721-.401.405-.807.758-1.262 1.11-.328.253-.556.126-.961.069-.172.312-.219.485-.536.643-.487.243-.922-.281-1.304-.589l.827 1.292.572.536.482.071.643-.393.339-.643.715-.536.875-.75.554-.786.5-.929.643-1.929.054-.732-.804-.357-.612-.524m-6.407 3.72c.902 0 1.854-.05 2.68-.429.234-.351.464-.637.75-.947-.26.492-.342.769-.411 1.322l-.268.393-2.037.054-.661-.072-.072-.071.018-.25m-.125-.625l-.07-.634c-.154.927-.117 1.549-.544 2.379-.319.369-.712.706-1.16.885.038.228.049.37.027.537-.079.601-1.281.335-1.775.311l2.379.613.536-.214.179-1.036.5-.929.089-.572-.161-1.34m-1.34-5.235c-.025.451-.054.638.145 1.037.253.506.563.982.838 1.482l.089-1-1.072-1.518M2.913 14.52l-.232.494c.213.717.402 1.171.807 1.798-.071.254-.123.365-.286.572-.357-.055-.674-.071-1.035-.07l1.197.929.59-.107.59-.59-.84-1.304-.791-1.721m20.722-8.817c.243 1.093.556 2.102.527 3.222-.036 1.374-.303 3.109-1.576 3.937-1.425.928-3.099.489-4.662.091l1.912.786 1.787.089 1.215-.357.947-.786.715-1.501.268-1.733-.214-1.697-.392-1.679-.524-.372M2.365 8.961c-.647.421-.901.606-.83 1.387l.194.701.274.185.339.113.613-.145.315-.975-.871.427h-.201l-.226-.347.274-.403.145-.766.185.056.226.177-.032-.403-.153-.258-.153-.129-.097.379m14.517-6.149c.574.533 1.279.996 1.738 1.649.178.252.375.381-.003.738.4-.114.548-.102.868-.063.582.07 1.127.898 1.162 1.491-.007.056-.162.181-.612.306-.009.017-.254-.034-.248-.017.047.128.109.148.205.207.021.142.034.362.131.517.283-.005.56.026.837.081.093.155.079.31.071.464l.322-.054-.089-.732.286-.482-.411-.929-.786-.75-.076-.004-.884-.542-1.442-1.18-1.07-.699m.966 4.401c-.03.053-.076.138-.135.196.239.226.357.378.442.698l-.811.403-.686.658c-.301-.162-.376-.287-.522-.595-.17.045-.331.088-.47.037.089.001.144-.022.232-.076l.437-.454.772-.584.505-.165c.065-.027.172-.09.237-.117"/><path d="M18.596 8.02c-.86.463-1.684.929-2.124 1.809 0-1.117 1.121-1.608 2.124-1.809M16.3 5.823c-.638.436-1.09 1.314-1.034 2.171-.208-.742-.134-1.443.505-1.955l.323-.157.206-.059"/></g><path d="M17.521 12.436l.504-.243-.515.096c-.362.061-.405.148-.462.506l-.09.545.24-.593c.088-.192.137-.21.323-.311zM10.79 3.237c.285-.428.449-.567.888-.838-.595.143-.709.254-.888.838zm-.094.942c.499-1.003.877-1.372 1.921-1.865-1.182.29-1.529.495-1.921 1.865zM.013 9.399c.109-.502.211-.692.521-1.104-.502.351-.568.495-.521 1.104zm11.182 8.405l-.046-.366a2.91 2.91 0 0 1-.009-.622l.051-.645c-.063.219-.188.437-.251.656l-.058.224a7.36 7.36 0 0 1-2.798.036l-.193-.965c-.019.29-.007 1.09-.008 1.539-.001.347-.016.466-.195.762-.168.277-.239.339-.473.807.019.295.02.49-.059.77-.13.465-1.445.105-1.791.01-.427-.116-1.31-.291-1.088-.86.195-.501.319-1.029.415-1.73-.782-1.127-1.51-2.671-1.649-4.04-.108-1.062-.043-1.716.187-2.367.364-1.03.874-1.921 1.692-2.639C6.025 7.404 7.056 7.015 8.67 6.77L7.479 8.157c-.424.499-.676 1.003-.945 1.549-.372.754-.364 1.04.129 1.702.425.57.654.827.84 1.385-.153.316-.209.582-.26 1.014.52.568.907.958 1.411 1.078.495.118.909.095 1.352-.131.984-.503 1.895-1.153 3.005-1.18.514-1.263.462-2.318.215-3.539-.168-.834-.236-1.624-.288-2.475a5.91 5.91 0 0 0-.093 2.519c.186 1.052.331 2.213-.187 3.138-1.004.077-1.864.688-2.769 1.156-.364.188-.742.207-1.145.096-.374-.103-.626-.349-1.028-.814-.006-.466.099-.681.313-1.104.344-.678.724-1.309 1.14-1.976l-1.395 1.749c-.154-.437-.373-.659-.736-1.152-.355-.481-.392-.691-.127-1.248s.493-1.051.948-1.541l2.363-2.626c.466-.453.655-.438 1.274-.531l1.674-.324-1.637.084c.528-.674.834-1.05 1.692-1.422 2.111-.917 3.452-1.016 5.111.378l1.241 1.024a1.58 1.58 0 0 0-.474.112c.219-.042.472 0 .7.041l.197.121c.308.181.482.281.69.571.22.306.403.612.565.95l-.274-.093c-.06-.027-.123-.045-.189-.051a.59.59 0 0 0-.366.085l-.013.006c-.17.083-.434.177-.61.206.09.031.289.043.383.006.012-.005.025-.009.038-.012-.042.072-.07.154-.078.242a.59.59 0 0 0 .063.327v.001c.016.037.038.072.062.097l-.248.101c.393-.06.748-.07 1.132-.02l.075.38-.154.012c-.181-.145-.384-.121-.661-.058-.841.192-.643.664-1.03 1.375.402-.491.372-1.005 1.027-1.16.152-.036.256-.081.36-.066-.186.094-.347.248-.41.428-.18.507-.068.935-.265 1.409.245-.423.259-.837.478-1.283.078-.16.37-.416.549-.42l.147-.003c.043.282.069.562.053.794a8.9 8.9 0 0 1-.207 1.293c.221-.285.322-.888.42-1.312.101-.442.076-.972-.013-1.447-.122-.651.549-.546.939-.852.286-.226.483-.586.746-.841s.67.119.773.366c.444 1.074.646 2.765.529 3.848-.132 1.215-.719 2.542-1.791 3.14-1.366.763-2.978.297-4.335-.161-.29-.098-.492-.24-.746-.4.069.312.101.643.009.955-.146.495-.383 1.304.289 1.454.256.057.372.049.733-.138-.292.066-.44.05-.64.013-.182-.034-.279-.149-.329-.286.064.046.167.071.344.114.498.12.973-.12 1.066-.465.054-.202.045-.308.16-.582l.319.087-.185.604c-.16.522-.784.943-1.334.934-.509-.009-.832-.328-1.183-.641l-.706-.626c-.634-.2-1.141-.434-1.73-.869.418.492.702.764 1.285 1.009-.085.866-.386 1.497-.643 2.325-.116.375-1.033 1.876-1.287 2.022-.181.104-1.315 1.06-1.529 1.186-.159.211-.298.503-.537.629-.728.385-1.196-.352-1.587-.975-.178-.284-.674-1.101-.242-1.329.408-.216.637-.371 1.054-.644.061.112.166.219.235.331zm2.531 1.32l-1.109.891c-.218.325-.245.526-.594.715-1.038.562-1.59-.09-2.204-1.037-.293-.451-.934-1.482-.254-1.832l.72-.384a7.76 7.76 0 0 1-2.14-.02l.033.248c.047.398.063.52-.153.84-.157.234-.218.301-.408.726.035.345.02.539-.078.901-.216.803-1.716.363-2.327.198-.735-.198-1.786-.384-1.354-1.329a4.5 4.5 0 0 0 .24-.664c-.643.284-1.536-.319-1.962-.746a2.46 2.46 0 0 1-.701-1.334c-.065-.389-.006-.387.272-.662l.762-.755.308-.837a6.06 6.06 0 0 1-.087-.622c-.073-.859-.049-1.47.074-2.032-.447.175-.961.093-1.189-.382-.087-.18-.138-.364-.204-.631-.998-.962.872-2.221 1.418-2.316l-.191.5c.37.192.325.737.246 1.089-.133-.168-.207-.388-.402-.397-.029.397-.024.837-.334 1.07.092.246.087.246.348.145.371-.142.65-.461.931-.771.303-.589.69-1.113 1.224-1.586 1.311-1.162 2.55-1.542 4.545-1.86l.835-.805c.399-.352.658-.425 1.035-.445.625-.835 1.116-1.417 2.134-1.846 2.134-.898 3.606-.942 5.319.471.566.467 1.049.959 1.671 1.348.315.197.54.339.779.623.3.358.545.715.716 1.176.221-.091.472-.176.675-.349.262-.224.429-.599.672-.846.322-.326 1.057.068 1.221.379.554 1.06.78 3.012.663 4.174-.145 1.435-.738 2.793-2.001 3.468-.86.459-2.014.502-3.002.315l-.192.632c-.192.631-.942 1.147-1.597 1.178-.629.03-.97-.295-1.382-.692l-.649-.625-.054.41c.17.336.252.632.398.979.16.382.239.632.25 1.041l.029 1.088a.9.9 0 0 1 .152.686c-.05.693-.432.76-1.068.756-.212-.001-1.012.004-1.216-.011-.405-.029-.673-.06-.813-.228zm2.146-3.783l-.457 1.383c-.149.468-.911 1.828-1.36 2.158.087.065.248.09.533.115.202.018.999.022 1.199.025.44.008.607-.026.652-.527.022-.246.003-.291-.12-.507l-.033-1.152c-.01-.364-.08-.573-.223-.913-.086-.203-.132-.392-.191-.583zM2.458 9.061c.099-.011.16.041.236.117-.014-.183-.047-.318-.176-.393l-.025.09a1.36 1.36 0 0 0-.035.186zm.621 1.319l-.199.57-.03.098c-.376.159-.87.261-1.06-.134-.092-.192-.144-.38-.211-.622-.619-.642.306-1.488.811-1.792-.073.157-.125.276-.16.398-.153.53.069 1.003-.411 1.387.226.456.216.638.741.427a1.72 1.72 0 0 0 .519-.33zm-.145 4.318c.285.986.771 1.954 1.309 2.769v.014c-.034.14-.073.276-.154.386-.385.515-1.363-.241-1.646-.53-.309-.316-.517-.691-.566-1.042-.036-.256-.001-.262.178-.443l.723-.731.158-.422zm18.215-7.913a.6.6 0 0 1 .13.19c.017-.015.034-.03.053-.043l-.069-.15-.114.003zm-4.712 1.773a.77.77 0 0 1-.075-.326c-.185.148-.385.287-.594.368.288-.257.678-.862.961-1.054.321-.217.757-.175 1.132-.348-.128.116-.292.21-.459.299a.77.77 0 0 1 .504.641c.252-.083.499-.122.707-.119-.747.21-1.541.7-2.088 1.349a1.74 1.74 0 0 1 .251-.458.77.77 0 0 1-.34-.352zm-3.462-2.701a9.66 9.66 0 0 1-1.191.383c-.367.482-.59.731-.674 1.377-.099-.635-.12-.753.163-1.228a1.37 1.37 0 0 0-.268.192c-.395.338-.91 1.665-1.116 2.14.131-.571.539-1.999.961-2.416.277-.274.34-.267.73-.304l1.394-.145zm8.604 1.385c.334.032.526.083.825-.065.558-.276.969-.727 1.235-1.266-.163.643-.491 1.191-1.171 1.433-.334.119-.549-.004-.889-.101zm-6.418.063c.126-.558.35-1.096 1.216-1.511-1.149.288-1.364.77-1.216 1.511zM.27 10.31c.098-1.116.315-1.597 1.108-2.437C.383 8.574.135 8.892.27 10.31" fill="#000"/><path d="M16.587 8.738c-.077-.16-.008-.354.153-.43s.355-.009.432.152c.007.015.013.031.018.046a2.05 2.05 0 0 0-.413.404c-.08-.032-.15-.091-.19-.173m3.596-1.391c.013-.133.126-.231.259-.218s.231.131.218.265a.24.24 0 0 1-.022.079c-.122.021-.243.056-.369.103-.052-.054-.094-.152-.087-.228" fill="#edd749"/></g></symbol></svg>